<svg width="2205" height="71" viewBox="0 0 2205 71" fill="none" xmlns="http://www.w3.org/2000/svg">
<g filter="url(#filter0_d_14_2)">
<path d="M5 62C5 62 154.195 0.527309 254.5 0.999977C352.909 1.46371 400.591 62.4819 499 62C595.515 61.5273 641.985 1.47265 738.5 0.999977C836.909 0.518036 884.591 62.4819 983 62C1079.52 61.5273 1126.01 -1.43592 1222.5 0.999977C1310.31 3.21691 1351.16 61.0822 1439 62C1530.22 62.9532 1573.39 5.66493 1664.5 0.999977C1777.03 -4.76164 1833.85 64.5534 1946.5 62C2048.49 59.6881 2200.5 0.999977 2200.5 0.999977" stroke="black"/>
</g>
<defs>
<filter id="filter0_d_14_2" x="0.811157" y="0.159546" width="2203.87" height="70.4093" filterUnits="userSpaceOnUse" color-interpolation-filters="sRGB">
<feFlood flood-opacity="0" result="BackgroundImageFix"/>
<feColorMatrix in="SourceAlpha" type="matrix" values="0 0 0 0 0 0 0 0 0 0 0 0 0 0 0 0 0 0 127 0" result="hardAlpha"/>
<feOffset dy="4"/>
<feGaussianBlur stdDeviation="2"/>
<feComposite in2="hardAlpha" operator="out"/>
<feColorMatrix type="matrix" values="0 0 0 0 0 0 0 0 0 0 0 0 0 0 0 0 0 0 0.25 0"/>
<feBlend mode="normal" in2="BackgroundImageFix" result="effect1_dropShadow_14_2"/>
<feBlend mode="normal" in="SourceGraphic" in2="effect1_dropShadow_14_2" result="shape"/>
</filter>
</defs>
</svg>
