<svg width="1242" height="11" viewBox="0 0 1242 11" fill="none" xmlns="http://www.w3.org/2000/svg">
<path d="M1 9.0002L32 3.00019C56 -0.99981 74 3.00019 74 3.00019C74 3.00019 99.4375 8.55256 116 9.0002C136.435 9.55248 147.558 3.12724 168 3.00019C189.606 2.8659 201.394 8.87964 223 9.0002C245.771 9.12725 258.232 3.40041 281 3.00019C308.433 2.51797 323.566 9.38878 351 9.0002C374.546 8.66668 387.453 2.74143 411 3.00019C432.217 3.23334 443.783 8.83946 465 9.0002C487.771 9.1727 500.229 3.15066 523 3.00019C547.325 2.83945 560.678 9.44783 585 9.0002C605.439 8.62403 616.558 3.08644 637 3.00019C658.218 2.91066 669.809 10.0629 691 9.0002C705.62 8.26705 713.362 2.86822 728 3.00019C741.867 3.12521 749.15 8.30226 763 9.0002C782.641 9.98996 793.354 2.10136 813 3.00019C827.238 3.6516 834.75 9.28807 849 9.0002C861.712 8.74339 868.291 3.36563 881 3.00019C896.018 2.56837 903.978 8.77928 919 9.0002C935.567 9.24383 944.44 2.45725 961 3.00019C974.476 3.44202 981.572 7.78346 995 9.0002C1009.39 10.3041 1017.6 10.1529 1032 9.0002C1046.59 7.83245 1054.37 3.60507 1069 3.00019C1088.65 2.18754 1099.38 7.72401 1119 9.0002C1142.38 10.5207 1157.57 3.00019 1181 3.00019C1205.21 3.00019 1241 9.0002 1241 9.0002" stroke="black"/>
</svg>
