<svg width="1242" height="14" viewBox="0 0 1242 14" fill="none" xmlns="http://www.w3.org/2000/svg">
<path d="M1 6.99997L43 12.9999C67 8.99987 74 7.00005 74 7.00005C74 7.00005 102.438 12.5522 119 12.9999C139.435 13.5521 146.558 7.12711 167 7.00005C188.606 6.86576 198.394 12.8793 220 12.9999C242.771 13.1269 259.232 13.4001 282 12.9999C309.433 12.5177 320.566 7.38864 348 7.00005C371.546 6.66654 389.453 0.741209 413 0.999966C434.217 1.23312 442.783 6.83932 464 7.00005C486.771 7.17256 487.229 1.15043 510 0.999966C534.325 0.839228 558.678 7.44769 583 7.00005C603.439 6.62388 613.558 1.08622 634 0.999966C655.218 0.910439 669.809 8.06275 691 7.00005C705.62 6.26691 712.362 6.868 727 6.99997C740.867 7.125 749.15 0.302029 763 0.999966C782.641 1.98973 793.354 6.10123 813 7.00005C827.238 7.65146 833.75 13.2877 848 12.9999C860.712 12.7431 873.291 1.36541 886 0.999966C901.018 0.568151 904.978 12.779 920 12.9999C936.567 13.2435 941.44 0.456927 958 0.999867C971.476 1.4417 977.572 5.78342 991 7.00016C1005.39 8.30411 1023.6 2.15266 1038 0.99998C1052.59 -0.167762 1054.37 7.60493 1069 7.00005C1088.65 6.1874 1099.38 5.72379 1119 6.99997C1142.38 8.52048 1157.57 0.999966 1181 0.999966C1205.21 0.999966 1241 6.99997 1241 6.99997" stroke="black"/>
</svg>
