<svg width="1242" height="15" viewBox="0 0 1242 15" fill="none" xmlns="http://www.w3.org/2000/svg">
<path d="M1 8.00011L32 2.0001C56 -1.9999 74 8.00019 74 8.00019C74 8.00019 100.438 1.55247 117 2.0001C137.435 2.55239 146.558 8.12724 167 8.00019C188.606 7.8659 200.394 1.87955 222 2.0001C244.771 2.12716 261.232 8.40041 284 8.00019C311.433 7.51797 321.566 2.38869 349 2.0001C372.546 1.66659 386.453 7.74135 410 8.00011C431.217 8.23326 443.783 1.83936 465 2.0001C487.771 2.17261 500.229 8.15058 523 8.00011C547.325 7.83937 559.678 2.44774 584 2.0001C604.439 1.62393 615.558 8.08644 636 8.00019C657.218 7.91066 669.809 3.0628 691 2.0001C705.62 1.26696 713.362 13.868 728 14C741.867 14.125 749.15 7.30217 763 8.00011C782.641 8.98988 793.354 7.10136 813 8.00019C827.238 8.6516 834.75 2.28798 849 2.0001C861.712 1.74329 868.291 8.36563 881 8.00019C896.018 7.56837 903.978 7.77919 919 8.00011C935.567 8.24374 943.44 7.45725 960 8.00019C973.476 8.44202 985.572 0.783362 999 2.0001C1013.39 3.30405 1017.6 9.15279 1032 8.00011C1046.59 6.83237 1054.37 8.60507 1069 8.00019C1088.65 7.18754 1099.38 6.72392 1119 8.00011C1142.38 9.52062 1157.57 2.0001 1181 2.0001C1205.21 2.0001 1241 8.00011 1241 8.00011" stroke="black"/>
</svg>
